<?xml version="1.0" encoding="utf-8"?>
<!-- Generator: Adobe Illustrator 25.0.0, SVG Export Plug-In . SVG Version: 6.00 Build 0)  -->
<svg version="1.1" id="Layer_1" xmlns="http://www.w3.org/2000/svg" xmlns:xlink="http://www.w3.org/1999/xlink" x="0px" y="0px"
	 viewBox="0 0 1080 6000" style="enable-background:new 0 0 1080 6000;" xml:space="preserve">
<image style="overflow:visible;" width="2191" height="3099" xlink:href="../highs-home_Page_1.png"  transform="matrix(0.4911 0 0 0.4911 -1100 0)">
</image>
<image style="overflow:visible;" width="2630" height="3719" xlink:href="../highs-home_Page_2.png"  transform="matrix(0.4098 0 0 0.4098 -1100 1466)">
</image>
<image style="overflow:visible;" width="2704" height="3824" xlink:href="../highs-home_Page_6.png"  transform="matrix(0.3994 0 0 0.3994 -1100 2948)">
</image>
<image style="overflow:visible;" width="2563" height="3613" xlink:href="../highs-home_Page_7.png"  transform="matrix(0.4206 0 0 0.422 -1100 4475)">
</image>
<image style="overflow:visible;" width="1208" height="1708" xlink:href="../highs-2_Page_01.png"  transform="matrix(0.8911 0 0 0.8911 0 0)">
</image>
<image style="overflow:visible;" width="1654" height="2339" xlink:href="../highs-2_Page_02.png"  transform="matrix(0.6494 0 0 0.6494 0 1429)">
</image>
<image style="overflow:visible;" width="1654" height="2339" xlink:href="../highs-2_Page_03.png"  transform="matrix(0.6503 0 0 0.6503 0 2058)">
</image>
<image style="overflow:visible;" width="1654" height="2339" xlink:href="../highs-2_Page_04.png"  transform="matrix(0.6493 0 0 0.6493 0 3499)">
</image>
<image style="overflow:visible;" width="1654" height="2339" xlink:href="../highs-2_Page_05.png"  transform="matrix(0.6493 0 0 0.6493 0 4967)">
</image>
</svg>
